<?xml version="1.0" encoding="UTF-8" standalone="no"?>
<!-- Created with Inkscape (http://www.inkscape.org/) -->

<svg
   xmlns:dc="http://purl.org/dc/elements/1.1/"
   xmlns:cc="http://creativecommons.org/ns#"
   xmlns:rdf="http://www.w3.org/1999/02/22-rdf-syntax-ns#"
   xmlns:svg="http://www.w3.org/2000/svg"
   xmlns="http://www.w3.org/2000/svg"
   xmlns:sodipodi="http://sodipodi.sourceforge.net/DTD/sodipodi-0.dtd"
   xmlns:inkscape="http://www.inkscape.org/namespaces/inkscape"
   width="256"
   height="256"
   viewBox="0 0 256 256"
   id="svg2"
   version="1.1"
   inkscape:version="0.91 r13725"
   sodipodi:docname="logo.svg">
  <defs
     id="defs4" />
  <sodipodi:namedview
     id="base"
     pagecolor="#ffffff"
     bordercolor="#666666"
     borderopacity="1.0"
     inkscape:pageopacity="0.0"
     inkscape:pageshadow="2"
     inkscape:zoom="3.6203867"
     inkscape:cx="168.56769"
     inkscape:cy="68.64038"
     inkscape:document-units="px"
     inkscape:current-layer="layer1"
     showgrid="false"
     inkscape:window-width="1920"
     inkscape:window-height="1056"
     inkscape:window-x="0"
     inkscape:window-y="24"
     inkscape:window-maximized="1"
     units="px"
     width="48.00256px" />
  <metadata
     id="metadata7">
    <rdf:RDF>
      <cc:Work
         rdf:about="">
        <dc:format>image/svg+xml</dc:format>
        <dc:type
           rdf:resource="http://purl.org/dc/dcmitype/StillImage" />
        <dc:title></dc:title>
      </cc:Work>
    </rdf:RDF>
  </metadata>
  <g
     inkscape:label="Layer 1"
     inkscape:groupmode="layer"
     id="layer1"
     transform="translate(0,-796.3622)">
    <g
       id="g3370"
       transform="matrix(0.42052591,0,0,0.42052591,89.949197,824.94298)">
      <g
         id="g3356" />
      <path
         id="path3358"
         d="M 365.168,9.257 289.351,109.414 C 178.954,253.654 99.184,357.878 130.385,421.837 c 17.787,36.495 67.85,53.904 157.532,54.784 l 0.286,-28.959 C 212.857,446.924 168.518,433.961 156.414,409.139 133.056,361.257 216.144,252.723 312.349,127.017 L 388.443,26.501 365.167,9.257 Z"
         inkscape:connector-curvature="0"
         style="fill:#000000" />
      <path
         id="path3360"
         d="m 331.377,413.942 c 11.438,9.482 17.705,21.422 17.674,33.577 -0.051,11.919 -6.288,23.562 -17.582,32.778 l 18.329,22.436 c 18.115,-14.817 28.139,-34.375 28.211,-55.122 0.082,-20.982 -9.913,-40.858 -28.13,-55.982 l -18.503,22.313 z"
         inkscape:connector-curvature="0"
         style="fill:#000000" />
      <path
         id="path3362"
         d="m 256.594,427.582 c 11.172,-2.857 21.504,-1.341 29.092,4.24 7.424,5.458 11.653,14.264 12.226,25.457 l 28.918,-1.515 c -1.034,-19.856 -9.554,-36.659 -23.993,-47.278 -14.715,-10.824 -33.69,-13.998 -53.422,-8.96 l 7.178,28.058 z"
         inkscape:connector-curvature="0"
         style="fill:#000000" />
    </g>
    <path
       style="fill:#000000;fill-rule:evenodd;stroke:none;stroke-width:1"
       id="finger-click-3"
       d="m 96.647244,1004.2308 c 8.570176,0 15.539766,-6.96964 15.539766,-15.53981 0,-8.57017 -6.96959,-15.53976 -15.539766,-15.53976 l -24.587792,0 c -1.029517,2.87097 -2.606804,8.43421 -2.606804,15.53976 0,7.16767 1.565635,12.68821 2.599026,15.53981 z m 0,7.7699 -27.194596,0 c -1.47239,0 -2.816578,-0.8314 -3.477016,-2.1484 -0.170935,-0.3497 -4.292863,-8.7333 -4.292863,-21.16131 0,-12.42793 4.121928,-20.81163 4.292863,-21.16127 0.660438,-1.317 2.004626,-2.14837 3.477016,-2.14837 l 27.194596,0 c 12.855276,0 23.309646,10.45437 23.309646,23.30964 0,12.85531 -10.45437,23.30971 -23.309646,23.30971 z m -57.750648,-11.6549 0,-23.30963 c 0,-2.14449 -1.839461,-3.88494 -4.115118,-3.88494 -2.275665,0 -4.115124,1.74045 -4.115124,3.88494 l 0,23.30963 c 0,2.1591 1.839459,3.885 4.115124,3.885 2.275657,0 4.115118,-1.7405 4.115118,-3.885 z m -16.460477,0 0,-23.30963 c 0,-2.14449 -1.839461,-3.88494 -4.115125,-3.88494 -2.275657,0 -4.115117,1.74045 -4.115117,3.88494 l 0,23.30963 c 0,2.141 1.83946,3.885 4.115117,3.885 2.275664,0 4.115125,-1.7383 4.115125,-3.885 z m 74.211125,27.1946 -78.32625,0 c -5.837878,-0.5746 -4.292005,-7.6467 0,-7.7698 l 78.32625,0 c 17.136476,0 31.079526,-13.9431 31.079526,-31.07961 0,-17.13647 -13.94305,-31.07952 -31.079526,-31.07952 l -78.32625,0 c -2.275657,0 -4.115117,-1.74046 -4.115117,-3.88494 0,-2.1445 1.83946,-3.88495 4.115117,-3.88495 l 78.32625,0 c 21.421556,0 38.849406,17.42785 38.849406,38.84941 0,21.42161 -17.42785,38.84941 -38.849406,38.84941 z"
       inkscape:connector-curvature="0"
       sodipodi:nodetypes="ssscscscscscssscscssssssccsssssccsssssssss" />
  </g>
  <g
     inkscape:groupmode="layer"
     id="layer2"
     inkscape:label="Layer 2"
     style="display:none"
     sodipodi:insensitive="true"
     transform="translate(0,-796.3622)">
    <path
       style="fill:#000000;fill-rule:evenodd;stroke:none;stroke-width:1"
       id="finger-click"
       d="m 215.64502,330.24704 c 20.37967,0 36.95317,-16.5735 36.95317,-36.95317 0,-20.37967 -16.5735,-36.95317 -36.95317,-36.95317 l -58.46915,0 c -2.44815,6.8271 -6.1989,20.05633 -6.1989,36.95317 0,17.04465 3.72303,30.17226 6.18042,36.95317 l 58.48763,0 z m 0,18.47658 -64.66805,0 c -3.50131,0 -6.69776,-1.97699 -8.26827,-5.10877 -0.40648,-0.83145 -10.20831,-20.76768 -10.20831,-50.32098 0,-29.5533 9.80183,-49.48953 10.20831,-50.32098 1.57051,-3.13178 4.76696,-5.10877 8.26827,-5.10877 l 64.66805,0 c 30.56951,0 55.42975,24.86024 55.42975,55.42975 0,30.56951 -24.86024,55.42975 -55.42975,55.42975 l 0,0 z m -295.625351,-27.71487 0,-55.42976 c 0,-5.09954 -4.129517,-9.23829 -9.238292,-9.23829 -5.108776,0 -9.238293,4.13875 -9.238293,9.23829 l 0,55.42976 c 0,5.09953 4.129517,9.23829 9.238293,9.23829 5.108775,0 9.238292,-4.13876 9.238292,-9.23829 l 0,0 z m -36.953169,0 0,-55.42976 c 0,-5.09954 -4.12952,-9.23829 -9.23829,-9.23829 -5.10878,0 -9.2383,4.13875 -9.2383,9.23829 l 0,55.42976 c 0,5.09953 4.12952,9.23829 9.2383,9.23829 5.10877,0 9.23829,-4.13876 9.23829,-9.23829 l 0,0 z M 174.46071,170.65554 c 4.83163,-1.62594 7.43683,-6.86405 5.82012,-11.70492 -1.62593,-4.83162 -6.86405,-7.43682 -11.70491,-5.82012 -9.32144,3.13178 -18.37496,7.22434 -26.90191,12.16683 -2.95625,1.70908 -4.60991,4.81315 -4.60991,8.00036 0,1.57051 0.39725,3.1595 1.24717,4.61915 2.54977,4.4159 8.21284,5.92174 12.61951,3.36273 7.4553,-4.31428 15.37252,-7.8895 23.52993,-10.62403 l 0,0 z m 45.71107,-16.16701 c -0.0277,0.30486 -0.0462,0.60972 -0.0462,0.91459 0,4.69305 3.56598,8.71171 8.34218,9.18286 18.23639,1.79223 35.53047,7.31673 51.42033,16.42568 4.42514,2.54053 10.06974,1.00698 12.60103,-3.41816 2.54053,-4.42515 1.00698,-10.06974 -3.41817,-12.61027 -18.16248,-10.41156 -37.94166,-16.73979 -58.80173,-18.78145 -5.08106,-0.50811 -9.59858,3.20569 -10.09745,8.28675 l 0,0 z m 140.07099,108.01411 c -4.33276,-20.46282 -12.81351,-39.42903 -25.2113,-56.36282 -3.01168,-4.12028 -8.78562,-5.01639 -12.91513,-2.00471 -2.46663,1.81071 -3.77847,4.61915 -3.77847,7.46454 0,1.89385 0.58202,3.80618 1.79223,5.45059 10.82728,14.80899 18.24563,31.39172 22.03333,49.27705 1.0624,4.99792 5.96794,8.18513 10.95662,7.13197 4.99791,-1.07165 8.19436,-5.99566 7.12272,-10.95662 l 0,0 z m -7.1412,50.7367 c -4.98868,-1.0624 -9.89421,2.12481 -10.96585,7.12273 -3.7877,17.86685 -11.20605,34.44035 -22.06105,49.25857 -1.21021,1.64442 -1.79222,3.5475 -1.79222,5.45059 0,2.8454 1.31183,5.6446 3.78769,7.4553 4.11105,3.02093 9.89422,2.12481 12.9059,-1.99547 12.40703,-16.93379 20.89702,-35.89076 25.23901,-56.3351 1.06241,-5.00716 -2.1248,-9.90345 -7.11348,-10.95662 l 0,0 z m -60.69558,95.81957 c -2.54053,-4.43438 -8.18513,-5.96794 -12.61951,-3.43664 -15.88986,9.10895 -33.19318,14.61497 -51.42957,16.39796 -4.7762,0.46192 -8.34218,4.48058 -8.34218,9.18287 0,0.29562 0.0185,0.60049 0.0462,0.90535 0.48963,5.07182 5.00716,8.79485 10.07898,8.29599 20.85082,-2.03243 40.64848,-8.34218 58.82944,-18.73526 4.43438,-2.54053 5.97718,-8.18513 3.43665,-12.61027 l 0,0 z m -111.94039,18.6244 c 1.6167,-4.83163 -0.99773,-10.0605 -5.82012,-11.68644 -8.15742,-2.7253 -16.08387,-6.29128 -23.54841,-10.59632 -4.42514,-2.54977 -10.07898,-1.03469 -12.62875,3.38121 -0.83144,1.45965 -1.22869,3.04864 -1.22869,4.60991 0,3.19645 1.65366,6.30051 4.61915,8.0096 8.54542,4.92401 17.59894,9.00733 26.92038,12.12064 4.84087,1.6167 10.07898,-0.99774 11.68644,-5.8386 l 0,0 z M 117.57131,136.78796 c 4.31428,-2.71606 5.60764,-8.41609 2.88234,-12.73961 -2.71605,-4.32352 -8.41608,-5.61688 -12.7396,-2.89158 -8.138935,5.13649 -16.009955,10.91042 -23.372875,17.16475 -2.14328,1.82918 -3.25188,4.43438 -3.25188,7.04881 0,2.11557 0.72059,4.24038 2.19871,5.97718 3.29807,3.88932 9.12744,4.36047 13.01676,1.0624 6.706995,-5.70002 13.848195,-10.95661 21.266545,-15.62195 l 0,0 z m 144.35755,342.44502 c 0,0.87764 0.1201,1.76451 0.38801,2.64215 1.45041,4.88706 6.60538,7.67702 11.49244,6.21737 18.46734,-5.51526 36.04781,-13.63572 52.24254,-24.13966 4.2958,-2.78072 5.51526,-8.50846 2.7253,-12.77656 -2.78073,-4.27732 -8.49923,-5.49678 -12.77656,-2.72529 -14.7166,9.55239 -30.68961,16.92455 -47.47559,21.9317 -4.00942,1.19174 -6.59614,4.86858 -6.59614,8.85029 l 0,0 z m -44.98124,17.30332 c 5.05334,-0.0647 9.12743,-4.18495 9.12743,-9.23829 l 0,-0.11086 c -0.0554,-5.09954 -4.24038,-9.1921 -9.34915,-9.12744 l -1.08088,0 c -17.23866,0 -34.30178,-2.37424 -50.70899,-7.06729 -4.90553,-1.40422 -10.01431,1.44117 -11.42777,6.33747 -0.23095,0.84992 -0.35105,1.70908 -0.35105,2.54977 0,4.01866 2.64215,7.71397 6.707,8.878 18.05162,5.1642 36.82383,7.77864 55.78081,7.77864 l 1.3026,0 z M 329.52545,135.93804 c 2.78996,-4.25886 1.59822,-9.9866 -2.66987,-12.7858 -16.15777,-10.58708 -33.69205,-18.79069 -52.13168,-24.379855 -4.88706,-1.47813 -10.04203,1.274885 -11.52939,6.161945 -0.26791,0.89611 -0.39725,1.79223 -0.39725,2.6791 0,3.96323 2.57749,7.63083 6.55919,8.84105 16.74902,5.08106 32.69432,12.52712 47.37396,22.15342 4.26809,2.79921 9.99583,1.59823 12.79504,-2.66986 l 0,0 z m 54.23801,234.13528 c -7.27054,15.8991 -16.78598,30.69884 -28.28765,44.00198 -1.50584,1.74604 -2.24491,3.89856 -2.24491,6.04185 0,2.58672 1.08089,5.1642 3.18722,6.98414 3.8616,3.34427 9.7002,2.91931 13.03523,-0.9423 12.64722,-14.62422 23.1142,-30.91133 31.11456,-48.40865 2.11557,-4.64686 0.0739,-10.13441 -4.56371,-12.24998 -4.63762,-2.11557 -10.11593,-0.0739 -12.24074,4.57296 l 0,0 z M 353.81292,167.16346 c 0,2.12481 0.72982,4.2681 2.21719,6.00489 11.437,13.34934 20.88778,28.20451 28.08441,44.1498 2.10633,4.64686 7.5754,6.71624 12.2315,4.60991 4.63762,-2.09709 6.707,-7.58464 4.6099,-12.21302 -7.92645,-17.54352 -18.31953,-33.87682 -30.88361,-48.5657 -3.32578,-3.87085 -9.14591,-4.32352 -13.02599,-1.00698 -2.14328,1.82918 -3.2334,4.41591 -3.2334,7.0211 l 0,0 z m 44.83343,100.39253 c 2.38348,17.19246 2.33729,35.17941 -0.12934,52.33492 -0.0739,0.44344 -0.10162,0.89612 -0.10162,1.33032 0,4.51752 3.32579,8.47151 7.92646,9.13667 5.03487,0.72982 9.72792,-2.78073 10.44851,-7.82484 2.73453,-18.86459 2.77148,-38.6253 0.14781,-57.5176 -0.70211,-5.05335 -5.36745,-8.58238 -10.4208,-7.88027 -5.05334,0.70211 -8.59161,5.34897 -7.87102,10.4208 l 0,0 z m -183.00133,-159.02797 1.98623,0.009 c 5.09954,0.0647 9.29372,-4.01866 9.35839,-9.118195 -0.0831,-5.48755 -4.01866,-9.28449 -9.12743,-9.35839 l -2.21719,-0.009 c -18.6244,0 -37.08251,2.53129 -54.86622,7.51997 -4.08333,1.14555 -6.74395,4.850105 -6.74395,8.887245 0,0.83144 0.11086,1.67213 0.34181,2.50357 1.38575,4.91477 6.47605,7.77864 11.40006,6.40214 16.15777,-4.536 32.93451,-6.83634 49.8683,-6.83634 l 0,0 z m -95.57937,353.78964 c 2.74377,-4.31428 1.45965,-10.02354 -2.85464,-12.7396 -7.39987,-4.68381 -14.54107,-9.95888 -21.229585,-15.66814 -3.88009,-3.31655 -9.71869,-2.85464 -13.02599,1.02545 -1.48737,1.74603 -2.21719,3.87084 -2.21719,5.99565 0,2.61443 1.10859,5.20116 3.24264,7.03034 7.36291,6.28204 15.21546,12.07445 23.335915,17.22018 4.31428,2.72529 10.02355,1.45041 12.74885,-2.86388 l 0,0 z m 95.57937,-76.64087 -341.81681,0 c -5.10878,0 -9.2383,-4.13875 -9.2383,-9.23829 0,-5.09954 4.12952,-9.23829 9.2383,-9.23829 l 341.81681,0 c 40.75011,0 73.90634,-33.15623 73.90634,-73.90634 0,-40.75011 -33.15623,-73.90634 -73.90634,-73.90634 l -341.81681,0 c -5.10878,0 -9.2383,-4.13875 -9.2383,-9.23829 0,-5.09954 4.12952,-9.23829 9.2383,-9.23829 l 341.81681,0 c 50.93994,0 92.38292,41.44298 92.38292,92.38292 0,50.93994 -41.44298,92.38292 -92.38292,92.38292 l 0,0 z"
       inkscape:connector-curvature="0" />
  </g>
</svg>
