<?xml version="1.0" encoding="utf-8"?>
<!-- Generated by IcoMoon.io -->
<!DOCTYPE svg PUBLIC "-//W3C//DTD SVG 1.1//EN" "http://www.w3.org/Graphics/SVG/1.1/DTD/svg11.dtd">
<svg version="1.1" xmlns="http://www.w3.org/2000/svg" xmlns:xlink="http://www.w3.org/1999/xlink" width="512" height="512" viewBox="0 0 512 512">
<g>
</g>
	<path d="M365.168 9.257l-75.817 100.157c-110.397 144.24-190.167 248.464-158.966 312.423 17.787 36.495 67.85 53.904 157.532 54.784l0.286-28.959c-75.346-0.738-119.685-13.701-131.789-38.523-23.358-47.882 59.73-156.416 155.935-282.122l76.094-100.516-23.276-17.244z" fill="#000000" />
	<path d="M331.377 413.942c11.438 9.482 17.705 21.422 17.674 33.577-0.051 11.919-6.288 23.562-17.582 32.778l18.329 22.436c18.115-14.817 28.139-34.375 28.211-55.122 0.082-20.982-9.913-40.858-28.13-55.982l-18.503 22.313z" fill="#000000" />
	<path d="M256.594 427.582c11.172-2.857 21.504-1.341 29.092 4.24 7.424 5.458 11.653 14.264 12.226 25.457l28.918-1.515c-1.034-19.856-9.554-36.659-23.993-47.278-14.715-10.824-33.69-13.998-53.422-8.96l7.178 28.058z" fill="#000000" />
</svg>
